<svg width="24" height="24" viewBox="0 0 24 24" fill="none" xmlns="http://www.w3.org/2000/svg" aria-hidden="true" style="flex-shrink: 0;"><path fill-rule="evenodd" clip-rule="evenodd" d="M19.0711 19.0711C15.1658 22.9763 8.83417 22.9763 4.92893 19.0711C1.02369 15.1658 1.02369 8.83417 4.92893 4.92893C8.83418 1.02369 15.1658 1.02369 19.0711 4.92893C22.9763 8.83418 22.9763 15.1658 19.0711 19.0711ZM5.67981 16.906L7.82809 14.7577C6.72397 13.0912 6.72397 10.9088 7.82808 9.24231L5.6798 7.09403C3.44006 9.97193 3.44007 14.0281 5.67981 16.906ZM14.7577 7.8281C13.0912 6.72398 10.9088 6.72398 9.24229 7.82809L7.09401 5.67981C9.97192 3.44006 14.0281 3.44006 16.906 5.67982L14.7577 7.8281ZM9.2423 16.1719L7.09403 18.3202C9.97194 20.5599 14.0281 20.5599 16.906 18.3202L14.7578 16.1719C13.0912 17.276 10.9088 17.276 9.2423 16.1719ZM16.172 14.7577L18.3202 16.9059C20.5599 14.0281 20.5599 9.97193 18.3202 7.09404L16.1719 9.24233C17.276 10.9088 17.276 13.0912 16.172 14.7577ZM14.1213 14.1213C12.9497 15.2929 11.0503 15.2929 9.87868 14.1213C8.70711 12.9498 8.70711 11.0503 9.87868 9.87869C11.0503 8.70711 12.9497 8.70711 14.1213 9.87869C15.2929 11.0503 15.2929 12.9498 14.1213 14.1213Z" fill="#494949"></path></svg>