<svg width="24" height="24" viewBox="0 0 24 24" fill="none" xmlns="http://www.w3.org/2000/svg" aria-hidden="true" style="flex-shrink: 0;"><path fill-rule="evenodd" clip-rule="evenodd" d="M9.78981 3.18532L3.49497 8.0813C3.28191 8.24692 3.04125 8.43398 2.85387 8.60374L2.84189 8.61457C2.69969 8.74281 2.21289 9.18183 2.03436 9.88393C1.78945 10.8471 2.13832 11.8639 2.92298 12.4738C3.29798 12.7653 3.70814 12.8862 3.99999 12.9388L3.99998 17.4463C3.99989 17.6845 3.99978 17.969 4.02026 18.2197C4.04399 18.5101 4.10488 18.9261 4.32698 19.362C4.6146 19.9265 5.07354 20.3854 5.63802 20.673C6.07392 20.8951 6.4899 20.956 6.78033 20.9797C7.03098 21.0002 7.3155 21.0001 7.55374 21H16.4462C16.6845 21.0001 16.969 21.0002 17.2197 20.9797C17.5101 20.956 17.9261 20.8951 18.362 20.673C18.9265 20.3854 19.3854 19.9265 19.673 19.362C19.8951 18.9261 19.956 18.5101 19.9797 18.2197C20.0002 17.969 20.0001 17.6845 20 17.4463L20 12.9388C20.2918 12.8862 20.702 12.7653 21.077 12.4738C21.8617 11.8639 22.2105 10.8471 21.9656 9.88393C21.7871 9.18183 21.3003 8.7428 21.1581 8.61457L21.1461 8.60374C20.9588 8.43399 20.7181 8.24697 20.5051 8.08136L14.2102 3.18533C14.1906 3.1701 14.168 3.15205 14.1424 3.13168C13.8999 2.93838 13.3961 2.53688 12.784 2.37114C12.2706 2.23212 11.7294 2.23212 11.216 2.37114C10.6038 2.53688 10.1001 2.93836 9.85762 3.13165C9.83206 3.15203 9.80939 3.1701 9.78981 3.18532ZM11.7386 4.30163C11.5447 4.35415 11.369 4.49078 11.0177 4.76403L4.76311 9.6287C4.26433 10.0166 4.01494 10.2106 3.97268 10.3768C3.9237 10.5694 3.99347 10.7728 4.15041 10.8948C4.28579 11 4.60173 11 5.2336 11C5.48196 11 5.60615 11 5.70315 11.0431C5.74818 11.0632 5.78961 11.0896 5.82634 11.1212C5.86921 11.1581 5.90568 11.2022 5.934 11.2517C5.94234 11.2663 5.94998 11.2814 5.95686 11.2969C5.99999 11.3939 5.99999 11.518 5.99999 11.7664V17.4C5.99999 17.9601 5.99999 18.2401 6.10899 18.454C6.20486 18.6422 6.35784 18.7951 6.546 18.891C6.75992 19 7.03994 19 7.59999 19H9.5V14.5C9.5 13.1193 10.6193 12 12 12C13.3807 12 14.5 13.1193 14.5 14.5V19H16.4C16.96 19 17.2401 19 17.454 18.891C17.6421 18.7951 17.7951 18.6422 17.891 18.454C18 18.2401 18 17.9601 18 17.4V11.7664C18 11.518 18 11.3939 18.0431 11.2969C18.05 11.2814 18.0576 11.2663 18.066 11.2517C18.0943 11.2022 18.1308 11.1581 18.1736 11.1212C18.2104 11.0896 18.2518 11.0632 18.2968 11.0431C18.3938 11 18.518 11 18.7664 11C19.3982 11 19.7142 11 19.8496 10.8948C20.0065 10.7728 20.0763 10.5694 20.0273 10.3768C19.985 10.2106 19.7357 10.0166 19.2369 9.6287L12.9823 4.76403C12.631 4.49078 12.4553 4.35415 12.2613 4.30163C12.0902 4.25529 11.9098 4.25529 11.7386 4.30163Z" fill="#494949"></path></svg>