<svg width="24" height="24" viewBox="0 0 24 24" fill="none" xmlns="http://www.w3.org/2000/svg" aria-hidden="true" style="flex-shrink: 0;"><path fill-rule="evenodd" clip-rule="evenodd" d="M14.4142 2H19C20.6568 2 22 3.34315 22 5V9.58579C22 10.3814 21.6839 11.1445 21.1213 11.7071L12.1213 20.7071C10.9497 21.8787 9.05022 21.8787 7.87865 20.7071L3.29286 16.1213C2.12129 14.9497 2.12129 13.0503 3.29286 11.8787L12.2929 2.87868C12.8555 2.31607 13.6185 2 14.4142 2ZM14.4142 4H19C19.5523 4 20 4.44772 20 5V9.58579C20 9.851 19.8946 10.1054 19.7071 10.2929L10.7071 19.2929C10.3166 19.6834 9.68339 19.6834 9.29286 19.2929L4.70708 14.7071C4.31655 14.3166 4.31655 13.6834 4.70708 13.2929L13.7071 4.29289C13.8946 4.10536 14.149 4 14.4142 4Z" fill="#494949"></path><path d="M18 7.5C18 8.32843 17.3284 9 16.5 9C15.6715 9 15 8.32843 15 7.5C15 6.67157 15.6715 6 16.5 6C17.3284 6 18 6.67157 18 7.5Z" fill="#494949"></path></svg>