<svg width="24" height="24" viewBox="0 0 24 24" fill="none" xmlns="http://www.w3.org/2000/svg" aria-hidden="true" style="flex-shrink: 0;"><path fill-rule="evenodd" clip-rule="evenodd" d="M6.00001 5.00001H8V4.5C8 3.11929 9.11929 2 10.5 2H13.5C14.8807 2 16 3.11929 16 4.5V5L18 5.00001C19.1046 5.00001 20 5.89544 20 7.00001L20 16.8638C20.0001 17.3686 20.0001 17.8601 19.9661 18.2765C19.9288 18.7337 19.8406 19.2731 19.564 19.816C19.1805 20.5686 18.5686 21.1805 17.816 21.564C17.2731 21.8406 16.7337 21.9288 16.2765 21.9661C15.8602 22.0001 15.3686 22.0001 14.8639 22H9.13622C8.63145 22.0001 8.13987 22.0001 7.72355 21.9661C7.26636 21.9288 6.7269 21.8406 6.18405 21.564C5.4314 21.1805 4.81948 20.5686 4.43598 19.816C4.15939 19.2731 4.07125 18.7337 4.0339 18.2765C3.99989 17.8602 3.99995 17.3686 4.00001 16.8638L4.00001 7.00001C4.00001 5.89544 4.89544 5.00001 6.00001 5.00001ZM13.5 4C13.7761 4 14 4.22386 14 4.5V5H10V4.5C10 4.22386 10.2239 4 10.5 4H13.5ZM7.09203 19.782C6.74687 19.6061 6.4609 19.3342 6.26796 19H17.7321C17.5391 19.3342 17.2532 19.6061 16.908 19.782C16.4802 20 15.9201 20 14.8 20L9.20001 20C8.07991 20 7.51985 20 7.09203 19.782ZM18 17H6.00006L6.00001 7.00001L18 7.00001L18 17Z" fill="#494949"></path></svg>