<svg width="24" height="24" viewBox="0 0 24 24" fill="none" xmlns="http://www.w3.org/2000/svg" aria-hidden="true" style="flex-shrink: 0;"><path fill-rule="evenodd" clip-rule="evenodd" d="M4.27821 4.00614C4.19614 4.00053 4.08253 4 3.86483 4H3C2.44772 4 2 3.55228 2 3C2 2.44771 2.44772 2 3 2H3.86483L3.95147 1.99975C4.26422 1.99842 4.65669 1.99676 5.01419 2.13551C5.32256 2.2552 5.59642 2.4495 5.81126 2.70102C6.06033 2.99261 6.18841 3.36359 6.29048 3.65923L6.31886 3.74109L6.40948 4L18.5938 4C18.9671 3.99997 19.3123 3.99994 19.594 4.02561C19.8871 4.05231 20.2553 4.11581 20.5919 4.34366C21.0358 4.64402 21.3405 5.10993 21.4378 5.63693C21.5116 6.03671 21.4222 6.39943 21.3292 6.67864C21.2398 6.94703 21.1014 7.26328 20.9517 7.60525L18.8356 12.4421L18.8037 12.5155C18.6883 12.7822 18.5433 13.1173 18.2958 13.3777C18.082 13.6027 17.8189 13.7748 17.5271 13.8804C17.1892 14.0028 16.8242 14.0014 16.5336 14.0002L16.4536 14H9.05422L8.37797 15.082C8.11779 15.4983 7.96032 15.7521 7.86437 15.9424C7.85835 15.9543 7.85288 15.9655 7.8479 15.9758C7.85931 15.9771 7.87165 15.9783 7.88496 15.9795C8.09715 15.999 8.39587 16 8.88677 16H18C18.5523 16 19 16.4477 19 17C19 17.5523 18.5523 18 18 18L8.844 18C8.40971 18 8.01725 18.0001 7.70227 17.9712C7.38473 17.9421 6.97162 17.8729 6.61172 17.6056C6.14885 17.2618 5.85685 16.735 5.81065 16.1603C5.77473 15.7134 5.93504 15.3265 6.07864 15.0417C6.22108 14.7593 6.4291 14.4265 6.6593 14.0583L7.39752 12.8771L4.43115 4.40179C4.35923 4.19631 4.32119 4.08926 4.28879 4.01365L4.28577 4.00668L4.27821 4.00614Z" fill="white"></path><path d="M7.5 22C8.32843 22 9 21.3284 9 20.5C9 19.6716 8.32843 19 7.5 19C6.67157 19 6 19.6716 6 20.5C6 21.3284 6.67157 22 7.5 22Z" fill="white"></path><path d="M16.5 22C17.3284 22 18 21.3284 18 20.5C18 19.6716 17.3284 19 16.5 19C15.6716 19 15 19.6716 15 20.5C15 21.3284 15.6716 22 16.5 22Z" fill="white"></path></svg>
