<svg
  width="16"
  height="16"
  viewBox="0 0 24 24"
  fill="none"
  xmlns="http://www.w3.org/2000/svg"
  aria-hidden="true"
  style="flex-shrink: 0;"
>
  <path
    d="M12.9112 4.58819C12.7494 4.23012 12.3929 4 12 4C11.607 4 11.2505 4.23012 11.0887 4.58819L9.37313 8.38448L5.23251 8.84295C4.84196 8.8862 4.51293 9.15416 4.39151 9.52786C4.27008 9.90157 4.37877 10.3118 4.66932 10.5763L7.74967 13.381L6.90618 17.4606C6.82662 17.8454 6.97979 18.2412 7.29768 18.4721C7.61557 18.7031 8.03926 18.7265 8.38064 18.5319L12 16.469L15.6193 18.5319C15.9607 18.7265 16.3843 18.7031 16.7022 18.4721C17.0201 18.2412 17.1733 17.8454 17.0937 17.4606L16.2503 13.381L19.3306 10.5763C19.6212 10.3118 19.7298 9.90157 19.6084 9.52786C19.487 9.15416 19.158 8.8862 18.7674 8.84295L14.6268 8.38448L12.9112 4.58819Z"
    fill="#191919"
  ></path>
</svg>
